<?xml version="1.0" encoding="UTF-8" standalone="no"?>
<svg
   version="1.1"
   id="Layer_1"
   x="0px"
   y="0px"
   width="100%"
   viewBox="0 0 500 500"
   enable-background="new 0 0 500 500"
   xml:space="preserve"
   xmlns="http://www.w3.org/2000/svg"
   xmlns:svg="http://www.w3.org/2000/svg"><defs
   id="defs29"><clipPath
     clipPathUnits="userSpaceOnUse"
     id="clipPath29"><rect
       style="fill:#000000"
       id="rect30"
       width="325.2865"
       height="253.09726"
       x="82.626251"
       y="55.664001" /></clipPath><clipPath
     clipPathUnits="userSpaceOnUse"
     id="clipPath31"><rect
       style="fill:#000000"
       id="rect32"
       width="263.53427"
       height="214.82826"
       x="125.244"
       y="93.063255" /></clipPath><clipPath
     clipPathUnits="userSpaceOnUse"
     id="clipPath33"><rect
       style="fill:#000000"
       id="rect34"
       width="253.96701"
       height="212.21901"
       x="125.244"
       y="93.933006" /></clipPath></defs>&#10;<path
   fill="#0D064B"
   opacity="1.000000"
   stroke="none"
   d=" M346.000000,501.000000   C230.666687,501.000000 115.833389,501.000000 1.000062,501.000000   C1.000041,334.333405 1.000041,167.666794 1.000021,1.000151   C167.666550,1.000101 334.333099,1.000101 500.999756,1.000050   C500.999817,167.666519 500.999817,334.333038 500.999908,500.999786   C449.500000,501.000000 398.000000,501.000000 346.000000,501.000000  M242.837906,369.088654   C244.109467,369.383179 245.766891,370.321655 246.572632,369.838806   C248.275009,368.818726 250.170959,367.264526 250.740829,365.521759   C251.103210,364.413574 249.572495,361.818298 248.277481,361.222351   C245.807678,360.085754 243.961609,361.456879 243.354004,364.272705   C243.011658,365.859192 242.411835,367.390137 241.727386,369.083740   C241.727386,369.083740 241.745728,369.424377 241.745728,369.424377   C241.745728,369.424377 242.062180,369.082306 242.837906,369.088654  M168.770828,363.823517   C168.631577,363.725494 168.492325,363.627502 168.399338,363.011261   C168.509537,362.453705 168.619736,361.896149 168.729935,361.338593   C167.812134,361.950775 166.415436,362.368286 166.071716,363.213867   C165.239914,365.260162 164.899048,367.506042 164.303207,369.900940   C166.096878,369.900940 167.748413,370.330261 168.933258,369.770966   C169.960800,369.285919 170.814484,367.749847 171.049179,366.543030   C171.174988,365.896118 169.833862,364.963959 168.770828,363.823517  M305.313629,128.539246   C288.777008,123.387566 272.279999,118.101372 255.667114,113.208694   C252.690918,112.332176 249.002838,112.308876 246.038528,113.202385   C221.482178,120.604126 197.065414,128.470947 172.484924,135.788940   C167.978607,137.130554 166.459564,139.336716 166.066422,143.623138   C163.639359,170.084824 165.322296,196.211044 173.159576,221.663239   C184.858353,259.655823 208.397125,286.833527 246.669647,299.953125   C249.002472,300.752808 252.040634,300.921600 254.345001,300.158722   C279.767975,291.742462 300.181152,276.574951 314.120239,253.571884   C335.329285,218.571487 339.196075,180.180588 334.918610,140.425430   C334.770050,139.044632 332.816650,137.231262 331.328461,136.725220   C322.974976,133.884628 314.506042,131.383652 305.313629,128.539246  M292.284393,340.198853   C293.473694,341.096313 294.575195,342.153748 295.867645,342.863342   C301.312347,345.852692 308.421753,344.853790 312.981232,340.569214   C317.462280,336.358337 318.899841,329.451721 316.519531,323.569733   C314.358215,318.228851 308.643311,314.700043 302.515808,315.145142   C296.962952,315.548462 292.648010,318.206085 290.251495,323.261932   C287.568054,328.923157 287.737335,334.516541 292.284393,340.198853  M206.622269,325.586243   C206.622269,331.653320 206.622269,337.720398 206.622269,344.398438   C210.674896,344.398438 214.141449,344.609467 217.571136,344.344025   C221.688034,344.025421 225.528793,342.789459 226.975281,338.300873   C228.468384,333.667694 227.112228,329.855347 224.624039,328.218109   C223.727905,323.782410 224.109253,319.850677 222.329651,318.022583   C218.084732,313.661987 212.364273,314.783844 206.622284,316.045105   C206.622284,319.039642 206.622284,321.829803 206.622269,325.586243  M114.773407,328.684204   C114.345627,316.485291 101.590363,313.176575 92.353249,316.003815   C92.353249,325.196472 92.353249,334.456146 92.353249,343.690460   C105.869400,346.883362 113.620026,341.953644 114.773407,328.684204  M409.906250,322.992035   C405.426636,315.957428 397.794556,313.400909 389.088745,316.086334   C389.088745,325.299316 389.088745,334.543152 389.088745,343.733307   C405.067444,347.126221 414.134186,338.403870 409.906250,322.992035  M159.474594,324.478394   C163.472778,318.665192 168.920212,320.900055 174.160721,322.130402   C174.160721,320.056091 174.160721,318.276398 174.160721,316.356293   C172.549515,315.931091 171.139572,315.318329 169.694504,315.219574   C163.620758,314.804260 158.017883,315.832581 154.444473,321.464447   C151.231369,326.528473 151.535385,334.634583 155.066406,339.403839   C158.658066,344.255066 163.631027,345.162354 169.273956,344.267059   C173.800217,343.548950 176.156631,341.545624 174.497391,336.495361   C170.213135,339.104065 165.708664,340.611389 161.462402,337.193451   C157.586014,334.073212 157.987823,329.617493 159.474594,324.478394  M249.239838,315.610748   C245.642731,315.610748 242.045639,315.610748 238.497253,315.610748   C238.497253,325.431183 238.497253,334.528290 238.497253,343.808289   C243.839737,343.808289 248.919510,343.808289 254.242996,343.808289   C254.357391,342.186157 254.457870,340.761566 254.598648,338.765594   C250.952255,338.765594 247.565002,338.765594 244.309265,338.765594   C244.309265,335.968109 244.309265,333.729858 244.309265,331.246033   C246.920013,331.246033 249.229935,331.246033 251.940903,331.246033   C251.852310,329.425781 251.777008,327.878571 251.687744,326.044586   C249.003494,326.044586 246.727081,326.044586 244.323486,326.044586   C244.323486,324.193115 244.323486,322.664825 244.323486,320.885010   C247.587570,320.885010 250.539108,320.885010 253.716156,320.885010   C253.716156,319.057159 253.716156,317.483765 253.716156,315.592133   C252.434692,315.592133 251.291199,315.592133 249.239838,315.610748  M141.695358,320.880951   C141.923828,319.214996 142.152283,317.549072 142.371567,315.950043   C136.849731,315.950043 131.980789,315.950043 127.099411,315.950043   C127.099411,325.415344 127.099411,334.498871 127.099411,343.799194   C132.363373,343.799194 137.427826,343.799194 142.692215,343.799194   C142.692215,342.076294 142.692215,340.551117 142.692215,338.744019   C139.291000,338.744019 136.186356,338.744019 132.826630,338.744019   C132.826630,336.223541 132.826630,333.986694 132.826630,331.455109   C135.306458,331.338745 137.569412,331.232574 140.033661,331.116943   C140.033661,329.413391 140.033661,327.868774 140.033661,326.256836   C137.461136,326.128052 135.196243,326.014648 132.777710,325.893585   C132.777710,324.187805 132.777710,322.781128 132.777710,320.975464   C135.596100,320.975464 138.216232,320.975464 141.695358,320.880951  M332.922272,334.751526   C333.909119,337.728973 334.895966,340.706421 335.930542,343.827911   C337.642090,343.827911 339.253265,343.827911 340.756866,343.827911   C343.895142,334.488342 346.974640,325.323547 350.111481,315.988251   C347.720856,315.988251 345.963074,315.988251 344.124512,315.988251   C342.319550,321.957001 340.578796,327.713318 338.538910,334.458862   C336.739777,329.024292 335.055481,324.692871 333.900940,320.224579   C332.863220,316.208466 330.898651,314.626556 326.417938,316.323029   C328.509949,322.227814 330.596008,328.115723 332.922272,334.751526  M367.949890,331.239716   C369.882599,331.239716 371.815277,331.239716 374.083069,331.239716   C373.937561,329.183655 373.838715,327.786926 373.736023,326.336090   C371.111511,326.163849 368.844818,326.015106 366.436768,325.857086   C366.436768,324.153778 366.436768,322.758759 366.436768,321.123291   C369.756775,320.975922 372.826172,320.839661 376.072021,320.695618   C375.983276,318.864044 375.913422,317.422180 375.836426,315.833191   C370.769867,315.833191 365.982574,315.833191 360.962280,315.833191   C360.962280,325.271576 360.962280,334.496735 360.962280,343.628632   C366.348480,343.628632 371.424866,343.628632 376.810425,343.628632   C376.681793,341.839996 376.582031,340.452698 376.460876,338.767578   C372.909027,338.767578 369.789856,338.767578 365.851013,338.767578   C366.307343,336.034943 366.692902,333.725983 367.949890,331.239716  M272.006927,333.349609   C272.006927,327.584351 272.006927,321.819092 272.006927,315.734070   C269.731232,315.865875 268.023499,315.964813 266.388123,316.059570   C266.388123,325.630005 266.388123,334.668884 266.388123,343.782745   C270.771515,343.782745 274.834930,343.782745 279.132507,343.782745   C279.132507,342.119720 279.132507,340.705750 279.132507,339.101074   C276.797180,338.989105 274.691406,338.888153 272.266571,338.771912   C272.175446,337.204773 272.091217,335.756256 272.006927,333.349609  M186.813538,325.591797   C186.813538,331.666870 186.813538,337.741974 186.813538,344.094269   C189.177689,343.957611 190.906250,343.857666 192.606094,343.759399   C192.606094,334.242950 192.606094,325.167877 192.606094,315.965149   C190.606171,315.965149 188.864304,315.965149 186.813553,315.965149   C186.813553,319.011688 186.813553,321.820312 186.813538,325.591797  M334.070618,368.321442   C334.706421,368.744141 335.342224,369.166809 335.978027,369.589508   C336.247406,367.463135 337.002808,365.235565 336.589508,363.251373   C336.369263,362.193970 334.128296,361.557495 332.282959,360.409882   C331.297455,364.200287 330.580505,366.957794 329.863525,369.715302   C330.261902,369.912781 330.660248,370.110229 331.058594,370.307709   C331.674011,369.312622 332.255951,368.293030 332.945862,367.352600   C333.035156,367.230865 333.682220,367.518341 334.070618,368.321442  z"
   id="path1"
   clip-path="url(#clipPath33)" />&#10;<path
   fill="#EDD059"
   opacity="1.000000"
   stroke="none"
   d=" M305.695068,128.653015   C314.506042,131.383652 322.974976,133.884628 331.328461,136.725220   C332.816650,137.231262 334.770050,139.044632 334.918610,140.425430   C339.196075,180.180588 335.329285,218.571487 314.120239,253.571884   C300.181152,276.574951 279.767975,291.742462 254.345001,300.158722   C252.040634,300.921600 249.002472,300.752808 246.669647,299.953125   C208.397125,286.833527 184.858353,259.655823 173.159576,221.663239   C165.322296,196.211044 163.639359,170.084824 166.066422,143.623138   C166.459564,139.336716 167.978607,137.130554 172.484924,135.788940   C197.065414,128.470947 221.482178,120.604126 246.038528,113.202385   C249.002838,112.308876 252.690918,112.332176 255.667114,113.208694   C272.279999,118.101372 288.777008,123.387566 305.695068,128.653015  M306.903503,134.383942   C289.402039,128.941055 271.918579,123.438461 254.375076,118.134590   C252.298630,117.506821 249.715897,117.386360 247.667328,118.011757   C223.604782,125.357666 199.618210,132.952545 175.555664,140.298477   C172.497406,141.232101 171.259430,142.671692 171.029602,145.796158   C169.170090,171.076828 170.555145,196.064575 178.115128,220.407669   C189.205566,256.118774 211.144501,281.936646 247.025406,294.675262   C249.048523,295.393555 251.702621,295.675446 253.670013,295.005798   C277.717560,286.820740 296.947601,272.282410 310.131714,250.433411   C329.815613,217.812805 333.428772,181.937836 330.458771,144.909271   C330.335388,143.371185 328.307159,141.279373 326.708099,140.690918   C320.461945,138.392380 314.031311,136.595184 306.903503,134.383942  z"
   id="path2" />&#10;<path
   fill="#F28A4D"
   opacity="1.000000"
   stroke="none"
   d=" M292.049377,339.916168   C287.737335,334.516541 287.568054,328.923157 290.251495,323.261932   C292.648010,318.206085 296.962952,315.548462 302.515808,315.145142   C308.643311,314.700043 314.358215,318.228851 316.519531,323.569733   C318.899841,329.451721 317.462280,336.358337 312.981232,340.569214   C308.421753,344.853790 301.312347,345.852692 295.867645,342.863342   C294.575195,342.153748 293.473694,341.096313 292.049377,339.916168  M310.196136,324.705170   C306.834717,320.662140 302.683838,319.479828 298.993134,321.514160   C295.301758,323.548889 293.410706,329.421997 295.244934,333.826813   C297.023743,338.098633 300.527557,339.593140 304.928741,338.954803   C310.360168,338.167023 312.403656,333.201904 310.196136,324.705170  z"
   id="path3" />&#10;<path
   fill="#F6F6F8"
   opacity="1.000000"
   stroke="none"
   d=" M206.622284,325.103119   C206.622284,321.829803 206.622284,319.039642 206.622284,316.045105   C212.364273,314.783844 218.084732,313.661987 222.329651,318.022583   C224.109253,319.850677 223.727905,323.782410 224.624039,328.218109   C227.112228,329.855347 228.468384,333.667694 226.975281,338.300873   C225.528793,342.789459 221.688034,344.025421 217.571136,344.344025   C214.141449,344.609467 210.674896,344.398438 206.622269,344.398438   C206.622269,337.720398 206.622269,331.653320 206.622284,325.103119  M216.270264,331.007324   C211.696320,331.423859 211.356308,332.273285 212.983170,339.766632   C216.585617,339.978516 220.494827,340.366302 221.810196,335.872986   C222.847000,332.331268 219.838120,331.559357 216.270264,331.007324  M214.440262,319.828125   C213.499115,321.717163 212.557968,323.606201 211.616821,325.495270   C212.271484,326.056580 212.926163,326.617889 213.580826,327.179199   C215.269073,325.983490 216.957336,324.787811 218.645584,323.592102   C217.518524,322.345306 216.391464,321.098541 214.440262,319.828125  z"
   id="path4" />&#10;<path
   fill="#F0EFF4"
   opacity="1.000000"
   stroke="none"
   d=" M114.781509,329.101074   C113.620026,341.953644 105.869400,346.883362 92.353249,343.690460   C92.353249,334.456146 92.353249,325.196472 92.353249,316.003815   C101.590363,313.176575 114.345627,316.485291 114.781509,329.101074  M97.931320,327.529663   C97.931320,331.415924 97.931320,335.302185 97.931320,339.188477   C98.424286,339.610809 98.917244,340.033173 99.410210,340.455505   C102.133911,338.803802 106.305519,337.720245 107.230560,335.362762   C108.510414,332.101044 108.348183,327.422333 106.886993,324.226837   C105.864151,321.989868 101.637390,321.217957 97.931320,319.327423   C97.931320,322.940979 97.931320,324.745239 97.931320,327.529663  z"
   id="path5" />&#10;<path
   fill="#F68C4D"
   opacity="1.000000"
   stroke="none"
   d=" M410.030029,323.372131   C414.134186,338.403870 405.067444,347.126221 389.088745,343.733307   C389.088745,334.543152 389.088745,325.299316 389.088745,316.086334   C397.794556,313.400909 405.426636,315.957428 410.030029,323.372131  M402.796570,322.809998   C400.214203,321.858246 397.631836,320.906494 394.840149,319.877563   C394.476654,321.584534 394.292755,322.054199 394.289459,322.525116   C394.259277,326.828949 394.463501,331.145660 394.195984,335.433441   C393.923615,339.798187 396.092163,340.110443 399.404053,339.159668   C405.328430,337.458923 407.038910,330.592010 402.796570,322.809998  z"
   id="path6" />&#10;<path
   fill="#F0EFF4"
   opacity="1.000000"
   stroke="none"
   d=" M159.293671,324.865601   C157.987823,329.617493 157.586014,334.073212 161.462402,337.193451   C165.708664,340.611389 170.213135,339.104065 174.497391,336.495361   C176.156631,341.545624 173.800217,343.548950 169.273956,344.267059   C163.631027,345.162354 158.658066,344.255066 155.066406,339.403839   C151.535385,334.634583 151.231369,326.528473 154.444473,321.464447   C158.017883,315.832581 163.620758,314.804260 169.694504,315.219574   C171.139572,315.318329 172.549515,315.931091 174.160721,316.356293   C174.160721,318.276398 174.160721,320.056091 174.160721,322.130402   C168.920212,320.900055 163.472778,318.665192 159.293671,324.865601  z"
   id="path7" />&#10;<path
   fill="#F3F3F6"
   opacity="1.000000"
   stroke="none"
   d=" M249.693771,315.601440   C251.291199,315.592133 252.434692,315.592133 253.716156,315.592133   C253.716156,317.483765 253.716156,319.057159 253.716156,320.885010   C250.539108,320.885010 247.587570,320.885010 244.323486,320.885010   C244.323486,322.664825 244.323486,324.193115 244.323486,326.044586   C246.727081,326.044586 249.003494,326.044586 251.687744,326.044586   C251.777008,327.878571 251.852310,329.425781 251.940903,331.246033   C249.229935,331.246033 246.920013,331.246033 244.309265,331.246033   C244.309265,333.729858 244.309265,335.968109 244.309265,338.765594   C247.565002,338.765594 250.952255,338.765594 254.598648,338.765594   C254.457870,340.761566 254.357391,342.186157 254.242996,343.808289   C248.919510,343.808289 243.839737,343.808289 238.497253,343.808289   C238.497253,334.528290 238.497253,325.431183 238.497253,315.610748   C242.045639,315.610748 245.642731,315.610748 249.693771,315.601440  z"
   id="path8" />&#10;<path
   fill="#F6F6F8"
   opacity="1.000000"
   stroke="none"
   d=" M141.265869,320.928223   C138.216232,320.975464 135.596100,320.975464 132.777710,320.975464   C132.777710,322.781128 132.777710,324.187805 132.777710,325.893585   C135.196243,326.014648 137.461136,326.128052 140.033661,326.256836   C140.033661,327.868774 140.033661,329.413391 140.033661,331.116943   C137.569412,331.232574 135.306458,331.338745 132.826630,331.455109   C132.826630,333.986694 132.826630,336.223541 132.826630,338.744019   C136.186356,338.744019 139.291000,338.744019 142.692215,338.744019   C142.692215,340.551117 142.692215,342.076294 142.692215,343.799194   C137.427826,343.799194 132.363373,343.799194 127.099411,343.799194   C127.099411,334.498871 127.099411,325.415344 127.099411,315.950043   C131.980789,315.950043 136.849731,315.950043 142.371567,315.950043   C142.152283,317.549072 141.923828,319.214996 141.265869,320.928223  z"
   id="path9" />&#10;<path
   fill="#F28A4D"
   opacity="1.000000"
   stroke="none"
   d=" M332.802185,334.377594   C330.596008,328.115723 328.509949,322.227814 326.417938,316.323029   C330.898651,314.626556 332.863220,316.208466 333.900940,320.224579   C335.055481,324.692871 336.739777,329.024292 338.538910,334.458862   C340.578796,327.713318 342.319550,321.957001 344.124512,315.988251   C345.963074,315.988251 347.720856,315.988251 350.111481,315.988251   C346.974640,325.323547 343.895142,334.488342 340.756866,343.827911   C339.253265,343.827911 337.642090,343.827911 335.930542,343.827911   C334.895966,340.706421 333.909119,337.728973 332.802185,334.377594  z"
   id="path10" />&#10;<path
   fill="#FB8F4D"
   opacity="1.000000"
   stroke="none"
   d=" M367.514191,331.328369   C366.692902,333.725983 366.307343,336.034943 365.851013,338.767578   C369.789856,338.767578 372.909027,338.767578 376.460876,338.767578   C376.582031,340.452698 376.681793,341.839996 376.810425,343.628632   C371.424866,343.628632 366.348480,343.628632 360.962280,343.628632   C360.962280,334.496735 360.962280,325.271576 360.962280,315.833191   C365.982574,315.833191 370.769867,315.833191 375.836426,315.833191   C375.913422,317.422180 375.983276,318.864044 376.072021,320.695618   C372.826172,320.839661 369.756775,320.975922 366.436768,321.123291   C366.436768,322.758759 366.436768,324.153778 366.436768,325.857086   C368.844818,326.015106 371.111511,326.163849 373.736023,326.336090   C373.838715,327.786926 373.937561,329.183655 374.083069,331.239716   C371.815277,331.239716 369.882599,331.239716 367.514191,331.328369  z"
   id="path11" />&#10;<path
   fill="#FB8F4D"
   opacity="1.000000"
   stroke="none"
   d=" M272.006958,333.828674   C272.091217,335.756256 272.175446,337.204773 272.266571,338.771912   C274.691406,338.888153 276.797180,338.989105 279.132507,339.101074   C279.132507,340.705750 279.132507,342.119720 279.132507,343.782745   C274.834930,343.782745 270.771515,343.782745 266.388123,343.782745   C266.388123,334.668884 266.388123,325.630005 266.388123,316.059570   C268.023499,315.964813 269.731232,315.865875 272.006927,315.734070   C272.006927,321.819092 272.006927,327.584351 272.006958,333.828674  z"
   id="path12" />&#10;<path
   fill="#F6F6F8"
   opacity="1.000000"
   stroke="none"
   d=" M186.813538,325.110382   C186.813553,321.820312 186.813553,319.011688 186.813553,315.965149   C188.864304,315.965149 190.606171,315.965149 192.606094,315.965149   C192.606094,325.167877 192.606094,334.242950 192.606094,343.759399   C190.906250,343.857666 189.177689,343.957611 186.813538,344.094269   C186.813538,337.741974 186.813538,331.666870 186.813538,325.110382  z"
   id="path13" />&#10;<path
   fill="#BFA555"
   opacity="1.000000"
   stroke="none"
   d=" M334.070740,367.968842   C333.682220,367.518341 333.035156,367.230865 332.945862,367.352600   C332.255951,368.293030 331.674011,369.312622 331.058594,370.307709   C330.660248,370.110229 330.261902,369.912781 329.863525,369.715302   C330.580505,366.957794 331.297455,364.200287 332.282959,360.409882   C334.128296,361.557495 336.369263,362.193970 336.589508,363.251373   C337.002808,365.235565 336.247406,367.463135 335.978027,369.589508   C335.342224,369.166809 334.706421,368.744141 334.070740,367.968842  M333.916504,364.258759   C334.364471,363.943726 334.887878,363.687958 335.211823,363.275513   C335.302460,363.160126 334.805145,362.582855 334.577484,362.217468   C334.364380,362.642395 334.151245,363.067322 333.916504,364.258759  z"
   id="path14" />&#10;<path
   fill="#BFA555"
   opacity="1.000000"
   stroke="none"
   d=" M169.154694,364.160522   C169.833862,364.963959 171.174988,365.896118 171.049179,366.543030   C170.814484,367.749847 169.960800,369.285919 168.933258,369.770966   C167.748413,370.330261 166.096878,369.900940 164.303207,369.900940   C164.899048,367.506042 165.239914,365.260162 166.071716,363.213867   C166.415436,362.368286 167.812134,361.950775 168.729935,361.338593   C168.619736,361.896149 168.509537,362.453705 168.287354,363.520691   C168.246948,364.287262 168.318558,364.544403 168.390167,364.801575   C168.645020,364.587891 168.899857,364.374207 169.154694,364.160522  M168.906357,366.829926   C168.337784,367.074951 167.769211,367.319977 167.200623,367.565002   C167.446976,368.025360 167.693314,368.485748 167.939651,368.946106   C168.284424,368.485535 168.629196,368.024963 168.906357,366.829926  z"
   id="path15" />&#10;<path
   fill="#1C0E4B"
   opacity="1.000000"
   stroke="none"
   d=" M241.928009,368.946106   C242.411835,367.390137 243.011658,365.859192 243.354004,364.272705   C243.961609,361.456879 245.807678,360.085754 248.277481,361.222351   C249.572495,361.818298 251.103210,364.413574 250.740829,365.521759   C250.170959,367.264526 248.275009,368.818726 246.572632,369.838806   C245.766891,370.321655 244.109467,369.383179 242.418488,369.049469   C241.999084,369.010284 241.928009,368.946106 241.928009,368.946106  M245.711929,364.803223   C245.996277,365.920563 246.280624,367.037872 246.769775,368.959961   C247.985504,366.550812 248.741425,365.052887 249.497345,363.554932   C249.231812,363.253113 248.966278,362.951294 248.700745,362.649475   C247.771545,363.188171 246.842361,363.726868 245.711929,364.803223  z"
   id="path16" />&#10;<path
   fill="#1C0E4B"
   opacity="1.000000"
   stroke="none"
   d=" M242.030640,369.046295   C242.062180,369.082306 241.745728,369.424377 241.745728,369.424377   C241.745728,369.424377 241.727386,369.083740 241.827698,369.014923   C241.928009,368.946106 241.999084,369.010284 242.030640,369.046295  z"
   id="path17" />&#10;<path
   fill="#0F084B"
   opacity="1.000000"
   stroke="none"
   d=" M307.286377,134.497772   C314.031311,136.595184 320.461945,138.392380 326.708099,140.690918   C328.307159,141.279373 330.335388,143.371185 330.458771,144.909271   C333.428772,181.937836 329.815613,217.812805 310.131714,250.433411   C296.947601,272.282410 277.717560,286.820740 253.670013,295.005798   C251.702621,295.675446 249.048523,295.393555 247.025406,294.675262   C211.144501,281.936646 189.205566,256.118774 178.115128,220.407669   C170.555145,196.064575 169.170090,171.076828 171.029602,145.796158   C171.259430,142.671692 172.497406,141.232101 175.555664,140.298477   C199.618210,132.952545 223.604782,125.357666 247.667328,118.011757   C249.715897,117.386360 252.298630,117.506821 254.375076,118.134590   C271.918579,123.438461 289.402039,128.941055 307.286377,134.497772  M261.679077,152.699112   C260.070374,152.285690 258.476776,151.797073 256.850677,151.470184   C234.397324,146.956528 212.868881,164.089569 213.215637,186.158173   C213.252853,188.526352 212.919586,190.713486 216.463959,191.111465   C219.993668,191.507812 220.180740,189.115616 220.840408,186.985992   C221.675766,184.289047 222.217621,181.497650 223.117264,178.824799   C227.027924,167.206253 235.385117,160.865036 247.316254,159.374908   C258.628601,157.962051 267.945953,161.943573 274.810944,171.115295   C284.003967,183.397308 283.057190,204.247360 272.259857,216.173508   C265.772308,223.339325 260.907349,231.287720 257.278137,240.123505   C254.590851,246.666092 251.840820,253.039368 243.904175,255.037735   C242.866577,255.298981 241.760117,257.878967 241.884079,259.278900   C241.971344,260.264709 244.231323,261.954620 245.273193,261.787170   C248.117966,261.329926 251.621506,260.818726 253.431671,258.945068   C257.152679,255.093491 260.247314,250.525742 263.037872,245.912827   C267.054260,239.273544 269.675537,231.592789 274.532623,225.711151   C280.211487,218.834381 284.414001,211.679688 286.524841,203.105286   C292.137848,180.305237 282.945068,161.076996 261.679077,152.699112  M240.369751,200.233185   C237.350327,196.890518 235.827194,193.189423 236.019730,188.464157   C236.417816,178.693680 243.419846,171.487503 252.742279,171.896439   C261.511993,172.281158 267.703552,180.438629 266.318176,190.378983   C265.573517,195.721878 264.049500,200.956146 262.810944,206.537857   C264.366211,207.202591 266.129700,207.956329 268.370911,208.914246   C272.183838,198.799011 275.063568,188.963959 271.645020,178.567413   C269.461731,171.927612 265.003876,167.113739 258.025391,165.082001   C248.527725,162.316864 239.511841,165.348984 233.720337,173.256973   C228.324814,180.624268 227.278458,194.745102 232.330551,201.640701   C235.652588,206.174942 235.890732,209.532333 232.177277,213.972610   C228.836960,217.966751 229.628632,222.867706 232.516846,227.004883   C235.186081,230.828354 239.077744,232.693985 243.814392,231.559631   C248.968384,230.325317 251.618240,226.867798 252.011780,219.854126   C248.895142,221.245636 246.585007,222.386108 244.189209,223.302750   C242.905746,223.793808 241.334991,224.373871 240.155685,224.026062   C239.246017,223.757782 238.080338,222.023499 238.197540,221.087372   C238.450760,219.064575 239.087311,216.886017 240.221802,215.215958   C243.454712,210.456833 244.132614,205.779877 240.369751,200.233185  z"
   id="path18" />&#10;<path
   fill="#0F084B"
   opacity="1.000000"
   stroke="none"
   d=" M310.414093,325.065125   C312.403656,333.201904 310.360168,338.167023 304.928741,338.954803   C300.527557,339.593140 297.023743,338.098633 295.244934,333.826813   C293.410706,329.421997 295.301758,323.548889 298.993134,321.514160   C302.683838,319.479828 306.834717,320.662140 310.414093,325.065125  z"
   id="path19" />&#10;<path
   fill="#1C0E4B"
   opacity="1.000000"
   stroke="none"
   d=" M216.691986,331.031555   C219.838120,331.559357 222.847000,332.331268 221.810196,335.872986   C220.494827,340.366302 216.585617,339.978516 212.983170,339.766632   C211.356308,332.273285 211.696320,331.423859 216.691986,331.031555  z"
   id="path20" />&#10;<path
   fill="#1C0E4B"
   opacity="1.000000"
   stroke="none"
   d=" M214.852325,319.839935   C216.391464,321.098541 217.518524,322.345306 218.645599,323.592102   C216.957336,324.787811 215.269073,325.983490 213.580826,327.179199   C212.926163,326.617889 212.271484,326.056580 211.616821,325.495270   C212.557968,323.606201 213.499115,321.717163 214.852325,319.839935  z"
   id="path21" />&#10;<path
   fill="#1C0E4B"
   opacity="1.000000"
   stroke="none"
   d=" M97.931320,327.039581   C97.931320,324.745239 97.931320,322.940979 97.931320,319.327423   C101.637390,321.217957 105.864151,321.989868 106.886993,324.226837   C108.348183,327.422333 108.510414,332.101044 107.230560,335.362762   C106.305519,337.720245 102.133911,338.803802 99.410210,340.455505   C98.917244,340.033173 98.424286,339.610809 97.931320,339.188477   C97.931320,335.302185 97.931320,331.415924 97.931320,327.039581  z"
   id="path22" />&#10;<path
   fill="#1C0E4B"
   opacity="1.000000"
   stroke="none"
   d=" M403.058899,323.105469   C407.038910,330.592010 405.328430,337.458923 399.404053,339.159668   C396.092163,340.110443 393.923615,339.798187 394.195984,335.433441   C394.463501,331.145660 394.259277,326.828949 394.289459,322.525116   C394.292755,322.054199 394.476654,321.584534 394.840149,319.877563   C397.631836,320.906494 400.214203,321.858246 403.058899,323.105469  z"
   id="path23" />&#10;<path
   fill="#0D064B"
   opacity="1.000000"
   stroke="none"
   d=" M333.927307,363.875488   C334.151245,363.067322 334.364380,362.642395 334.577515,362.217468   C334.805145,362.582855 335.302460,363.160126 335.211823,363.275513   C334.887878,363.687958 334.364471,363.943726 333.927307,363.875488  z"
   id="path24" />&#10;<path
   fill="#0D064B"
   opacity="1.000000"
   stroke="none"
   d=" M168.940155,367.197144   C168.629196,368.024963 168.284424,368.485535 167.939667,368.946106   C167.693314,368.485748 167.446976,368.025360 167.200623,367.565002   C167.769211,367.319977 168.337784,367.074951 168.940155,367.197144  z"
   id="path25" />&#10;<path
   fill="#0D064B"
   opacity="1.000000"
   stroke="none"
   d=" M168.962769,363.992004   C168.899857,364.374207 168.645020,364.587891 168.390167,364.801575   C168.318558,364.544403 168.246948,364.287262 168.264221,363.779816   C168.492325,363.627502 168.631577,363.725494 168.962769,363.992004  z"
   id="path26" />&#10;<path
   fill="#0D064B"
   opacity="1.000000"
   stroke="none"
   d=" M245.812561,364.534424   C246.842361,363.726868 247.771545,363.188171 248.700745,362.649475   C248.966278,362.951294 249.231812,363.253113 249.497345,363.554932   C248.741425,365.052887 247.985504,366.550812 246.769775,368.959961   C246.280624,367.037872 245.996277,365.920563 245.812561,364.534424  z"
   id="path27" />&#10;<path
   fill="#F68C4D"
   opacity="1.000000"
   stroke="none"
   d=" M262.058899,152.820770   C282.945068,161.076996 292.137848,180.305237 286.524841,203.105286   C284.414001,211.679688 280.211487,218.834381 274.532623,225.711151   C269.675537,231.592789 267.054260,239.273544 263.037872,245.912827   C260.247314,250.525742 257.152679,255.093491 253.431671,258.945068   C251.621506,260.818726 248.117966,261.329926 245.273193,261.787170   C244.231323,261.954620 241.971344,260.264709 241.884079,259.278900   C241.760117,257.878967 242.866577,255.298981 243.904175,255.037735   C251.840820,253.039368 254.590851,246.666092 257.278137,240.123505   C260.907349,231.287720 265.772308,223.339325 272.259857,216.173508   C283.057190,204.247360 284.003967,183.397308 274.810944,171.115295   C267.945953,161.943573 258.628601,157.962051 247.316254,159.374908   C235.385117,160.865036 227.027924,167.206253 223.117264,178.824799   C222.217621,181.497650 221.675766,184.289047 220.840408,186.985992   C220.180740,189.115616 219.993668,191.507812 216.463959,191.111465   C212.919586,190.713486 213.252853,188.526352 213.215637,186.158173   C212.868881,164.089569 234.397324,146.956528 256.850677,151.470184   C258.476776,151.797073 260.070374,152.285690 262.058899,152.820770  z"
   id="path28" />&#10;<path
   fill="#F4D559"
   opacity="1.000000"
   stroke="none"
   d=" M240.610382,200.530884   C244.132614,205.779877 243.454712,210.456833 240.221802,215.215958   C239.087311,216.886017 238.450760,219.064575 238.197540,221.087372   C238.080338,222.023499 239.246017,223.757782 240.155685,224.026062   C241.334991,224.373871 242.905746,223.793808 244.189209,223.302750   C246.585007,222.386108 248.895142,221.245636 252.011780,219.854126   C251.618240,226.867798 248.968384,230.325317 243.814392,231.559631   C239.077744,232.693985 235.186081,230.828354 232.516846,227.004883   C229.628632,222.867706 228.836960,217.966751 232.177277,213.972610   C235.890732,209.532333 235.652588,206.174942 232.330551,201.640701   C227.278458,194.745102 228.324814,180.624268 233.720337,173.256973   C239.511841,165.348984 248.527725,162.316864 258.025391,165.082001   C265.003876,167.113739 269.461731,171.927612 271.645020,178.567413   C275.063568,188.963959 272.183838,198.799011 268.370911,208.914246   C266.129700,207.956329 264.366211,207.202591 262.810944,206.537857   C264.049500,200.956146 265.573517,195.721878 266.318176,190.378983   C267.703552,180.438629 261.511993,172.281158 252.742279,171.896439   C243.419846,171.487503 236.417816,178.693680 236.019730,188.464157   C235.827194,193.189423 237.350327,196.890518 240.610382,200.530884  z"
   id="path29" />&#10;</svg>
