<svg xmlns="http://www.w3.org/2000/svg" xmlns:xlink="http://www.w3.org/1999/xlink" width="500" zoomAndPan="magnify" viewBox="0 0 375 374.999991" height="500" preserveAspectRatio="xMidYMid meet" version="1.0"><defs><clipPath id="982efeba1a"><path d="M 44.667969 51.835938 L 330.332031 51.835938 L 330.332031 337.5 L 44.667969 337.5 Z M 44.667969 51.835938 " clip-rule="nonzero"/></clipPath><clipPath id="0b488384e7"><path d="M 187.5 51.835938 C 108.617188 51.835938 44.667969 115.78125 44.667969 194.667969 C 44.667969 273.550781 108.617188 337.5 187.5 337.5 C 266.382812 337.5 330.332031 273.550781 330.332031 194.667969 C 330.332031 115.78125 266.382812 51.835938 187.5 51.835938 Z M 187.5 51.835938 " clip-rule="nonzero"/></clipPath><clipPath id="701497b247"><path d="M 123 123.304688 L 252 123.304688 L 252 265.804688 L 123 265.804688 Z M 123 123.304688 " clip-rule="nonzero"/></clipPath><clipPath id="f913b66332"><path d="M 159.140625 152 L 216 152 L 216 237 L 159.140625 237 Z M 159.140625 152 " clip-rule="nonzero"/></clipPath></defs><g clip-path="url(#982efeba1a)"><g clip-path="url(#0b488384e7)"><path fill="#0d064b" d="M 44.667969 51.835938 L 330.332031 51.835938 L 330.332031 337.5 L 44.667969 337.5 Z M 44.667969 51.835938 " fill-opacity="1" fill-rule="nonzero"/></g></g><g clip-path="url(#701497b247)"><path fill="#ffde59" d="M 187.539062 265.9375 L 186.96875 265.769531 C 169.179688 260.207031 154.835938 250.316406 144.261719 236.375 C 135.851562 225.257812 129.835938 211.542969 126.414062 195.664062 C 120.597656 168.722656 124.160156 145.144531 124.332031 144.148438 L 124.503906 142.980469 L 187.507812 123.394531 L 250.515625 142.980469 L 250.683594 144.148438 C 250.828125 145.144531 254.390625 168.722656 248.605469 195.664062 C 245.183594 211.542969 239.167969 225.257812 230.757812 236.375 C 220.207031 250.316406 205.839844 260.207031 188.050781 265.769531 Z M 127.898438 145.859375 C 127.242188 150.933594 125.132812 171.972656 130.121094 194.980469 C 133.425781 210.316406 139.214844 223.488281 147.3125 234.152344 C 157.261719 247.292969 170.804688 256.671875 187.539062 262.003906 C 204.300781 256.644531 217.84375 247.265625 227.792969 234.09375 C 235.890625 223.402344 241.648438 210.203125 244.953125 194.867188 C 249.914062 171.886719 247.804688 150.90625 247.148438 145.859375 L 187.507812 127.328125 Z M 127.898438 145.859375 " fill-opacity="1" fill-rule="nonzero"/></g><g clip-path="url(#f913b66332)"><path fill="#ff914d" d="M 159.644531 182.765625 L 163.699219 183.269531 C 166.230469 179.21875 165.214844 163.015625 182.941406 159.46875 C 201.171875 155.925781 215.351562 173.648438 207.753906 193.90625 C 203.199219 206.566406 200.160156 199.980469 191.550781 221.25 C 186.992188 231.886719 184.96875 228.847656 180.410156 231.886719 L 180.410156 235.429688 C 186.484375 238.976562 193.070312 231.378906 195.09375 227.328125 C 198.132812 220.746094 199.652344 215.175781 203.703125 210.109375 C 208.261719 205.046875 210.289062 204.035156 213.328125 194.410156 C 215.351562 187.320312 215.859375 178.710938 213.328125 171.621094 C 209.273438 160.480469 197.121094 150.351562 180.914062 153.390625 C 164.203125 156.429688 156.101562 174.660156 159.140625 182.257812 Z M 159.644531 182.765625 " fill-opacity="1" fill-rule="evenodd"/></g><path fill="#ffde59" d="M 176.863281 177.699219 C 176.863281 174.660156 178.890625 172.128906 182.433594 170.105469 C 183.449219 169.597656 185.472656 169.089844 186.992188 168.585938 C 191.550781 168.078125 196.109375 171.117188 198.132812 175.167969 C 200.160156 179.726562 198.640625 187.320312 196.613281 192.386719 C 196.109375 192.890625 196.109375 193.90625 195.601562 194.410156 L 200.160156 196.4375 C 201.171875 195.425781 202.183594 190.867188 202.691406 189.347656 C 204.71875 181.246094 204.71875 172.636719 198.640625 167.066406 C 196.613281 165.039062 195.601562 164.53125 192.5625 163.519531 C 186.484375 161.496094 179.394531 163.519531 175.34375 168.585938 C 174.839844 169.597656 173.824219 170.105469 173.320312 171.621094 C 172.304688 174.15625 171.292969 176.179688 171.292969 179.21875 C 171.292969 185.296875 170.789062 187.828125 174.332031 192.386719 C 174.839844 192.890625 175.34375 193.398438 175.34375 193.90625 C 175.851562 194.917969 175.851562 196.4375 175.34375 197.449219 C 174.839844 198.464844 174.332031 198.96875 173.320312 199.980469 C 171.292969 203.019531 171.292969 207.578125 174.332031 211.125 C 174.839844 211.628906 176.359375 212.644531 177.371094 213.148438 C 182.941406 215.175781 188.511719 211.125 188.003906 205.554688 L 182.941406 205.554688 C 182.941406 207.070312 182.433594 207.578125 181.421875 208.085938 C 180.410156 208.589844 178.890625 208.085938 178.382812 207.578125 C 177.371094 206.566406 177.371094 203.019531 178.890625 201.5 C 178.890625 201.5 179.394531 201.5 179.394531 200.996094 C 180.410156 199.476562 181.421875 197.957031 181.421875 195.929688 C 181.421875 193.398438 180.914062 191.375 179.394531 189.855469 C 178.382812 188.335938 176.863281 187.320312 176.359375 184.789062 C 176.359375 183.269531 175.851562 178.710938 176.863281 177.195312 Z M 176.863281 177.699219 " fill-opacity="1" fill-rule="evenodd"/></svg>